<mxfile host="app.diagrams.net" modified="2023-12-08T10:22:15.409Z" agent="Mozilla/5.0 (Windows NT 10.0; Win64; x64) AppleWebKit/537.36 (KHTML, like Gecko) Chrome/119.0.0.0 Safari/537.36" etag="Rm4A7shm0Bcl-8302Yew" version="22.1.7" type="github">
  <diagram name="Page-1" id="1jBXNMuYuO4Jp9FJHTQq">
    <mxGraphModel dx="986" dy="582" grid="1" gridSize="10" guides="1" tooltips="1" connect="1" arrows="1" fold="1" page="1" pageScale="1" pageWidth="827" pageHeight="1169" math="0" shadow="0">
      <root>
        <mxCell id="0" />
        <mxCell id="1" parent="0" />
        <mxCell id="GSw8OTz1grYgU09YJYgF-15" value="" style="rounded=1;whiteSpace=wrap;html=1;" parent="1" vertex="1">
          <mxGeometry x="80" y="180" width="720" height="520" as="geometry" />
        </mxCell>
        <mxCell id="GSw8OTz1grYgU09YJYgF-4" value="" style="rounded=0;whiteSpace=wrap;html=1;" parent="1" vertex="1">
          <mxGeometry x="400" y="280" width="360" height="320" as="geometry" />
        </mxCell>
        <mxCell id="GSw8OTz1grYgU09YJYgF-2" value="ARM Production&lt;br&gt;Subscription" style="image;aspect=fixed;html=1;points=[];align=center;fontSize=12;image=img/lib/azure2/general/Subscriptions.svg;imageBackground=none;" parent="1" vertex="1">
          <mxGeometry x="244" y="560" width="44" height="71" as="geometry" />
        </mxCell>
        <mxCell id="GSw8OTz1grYgU09YJYgF-5" value="New Client&lt;br&gt;Subscription" style="image;aspect=fixed;html=1;points=[];align=center;fontSize=12;image=img/lib/azure2/general/Subscriptions.svg;" parent="1" vertex="1">
          <mxGeometry x="690" y="560" width="44" height="71" as="geometry" />
        </mxCell>
        <mxCell id="GSw8OTz1grYgU09YJYgF-12" style="edgeStyle=orthogonalEdgeStyle;rounded=0;orthogonalLoop=1;jettySize=auto;html=1;exitX=0.25;exitY=1;exitDx=0;exitDy=0;" parent="1" source="GSw8OTz1grYgU09YJYgF-9" target="GSw8OTz1grYgU09YJYgF-10" edge="1">
          <mxGeometry relative="1" as="geometry" />
        </mxCell>
        <mxCell id="GSw8OTz1grYgU09YJYgF-16" value="" style="rounded=0;whiteSpace=wrap;html=1;fillColor=none;" parent="1" vertex="1">
          <mxGeometry x="120" y="280" width="200" height="320" as="geometry" />
        </mxCell>
        <mxCell id="GSw8OTz1grYgU09YJYgF-14" style="edgeStyle=orthogonalEdgeStyle;rounded=0;orthogonalLoop=1;jettySize=auto;html=1;exitX=0;exitY=0.5;exitDx=0;exitDy=0;" parent="1" source="GSw8OTz1grYgU09YJYgF-9" target="GSw8OTz1grYgU09YJYgF-13" edge="1">
          <mxGeometry relative="1" as="geometry" />
        </mxCell>
        <mxCell id="GSw8OTz1grYgU09YJYgF-9" value="" style="rounded=0;whiteSpace=wrap;html=1;" parent="1" vertex="1">
          <mxGeometry x="490" y="320" width="220" height="120" as="geometry" />
        </mxCell>
        <mxCell id="GSw8OTz1grYgU09YJYgF-6" value="System&lt;br&gt;Managed ID" style="image;sketch=0;aspect=fixed;html=1;points=[];align=center;fontSize=12;image=img/lib/mscae/Managed_Identities.svg;" parent="1" vertex="1">
          <mxGeometry x="520" y="339" width="38" height="50" as="geometry" />
        </mxCell>
        <mxCell id="GSw8OTz1grYgU09YJYgF-8" value="Automation Account" style="image;aspect=fixed;html=1;points=[];align=center;fontSize=12;image=img/lib/azure2/management_governance/Automation_Accounts.svg;" parent="1" vertex="1">
          <mxGeometry x="610" y="330" width="68" height="68" as="geometry" />
        </mxCell>
        <mxCell id="GSw8OTz1grYgU09YJYgF-10" value="Storage Account" style="image;aspect=fixed;html=1;points=[];align=center;fontSize=12;image=img/lib/azure2/storage/Storage_Accounts.svg;" parent="1" vertex="1">
          <mxGeometry x="512.5" y="500" width="65" height="52" as="geometry" />
        </mxCell>
        <mxCell id="GSw8OTz1grYgU09YJYgF-13" value="Log Analytics&lt;br&gt;Workspace" style="image;aspect=fixed;html=1;points=[];align=center;fontSize=12;image=img/lib/azure2/management_governance/Log_Analytics_Workspaces.svg;" parent="1" vertex="1">
          <mxGeometry x="176" y="348" width="64" height="64" as="geometry" />
        </mxCell>
        <mxCell id="GSw8OTz1grYgU09YJYgF-7" value="Entra ID" style="image;aspect=fixed;html=1;points=[];align=center;fontSize=12;image=img/lib/azure2/identity/Azure_Active_Directory.svg;" parent="1" vertex="1">
          <mxGeometry x="320" y="150" width="70" height="64" as="geometry" />
        </mxCell>
        <mxCell id="Pp1rQkgdkvk5TlmoH4xJ-1" value="MULESOFT" style="ellipse;whiteSpace=wrap;html=1;aspect=fixed;fillColor=#dae8fc;strokeColor=#6c8ebf;" parent="1" vertex="1">
          <mxGeometry x="840" y="486" width="80" height="80" as="geometry" />
        </mxCell>
        <mxCell id="Pp1rQkgdkvk5TlmoH4xJ-3" value="" style="sketch=0;pointerEvents=1;shadow=0;dashed=0;html=1;strokeColor=none;fillColor=#DF8C42;labelPosition=center;verticalLabelPosition=bottom;verticalAlign=top;align=center;outlineConnect=0;shape=mxgraph.veeam2.sap_hana;" parent="1" vertex="1">
          <mxGeometry x="1000" y="486" width="80" height="80" as="geometry" />
        </mxCell>
        <mxCell id="Pp1rQkgdkvk5TlmoH4xJ-4" style="edgeStyle=orthogonalEdgeStyle;rounded=0;orthogonalLoop=1;jettySize=auto;html=1;entryX=0;entryY=0.5;entryDx=0;entryDy=0;fillColor=#d5e8d4;strokeColor=#82b366;" parent="1" source="GSw8OTz1grYgU09YJYgF-10" target="Pp1rQkgdkvk5TlmoH4xJ-1" edge="1">
          <mxGeometry relative="1" as="geometry">
            <mxPoint x="820" y="530" as="sourcePoint" />
            <mxPoint x="555" y="510" as="targetPoint" />
          </mxGeometry>
        </mxCell>
        <mxCell id="obVJa8iYUR50clm_OMLJ-1" style="edgeStyle=orthogonalEdgeStyle;rounded=0;orthogonalLoop=1;jettySize=auto;html=1;fillColor=#d5e8d4;strokeColor=#82b366;exitX=1;exitY=0.5;exitDx=0;exitDy=0;" parent="1" source="Pp1rQkgdkvk5TlmoH4xJ-1" target="Pp1rQkgdkvk5TlmoH4xJ-3" edge="1">
          <mxGeometry relative="1" as="geometry">
            <mxPoint x="920" y="550" as="sourcePoint" />
            <mxPoint x="1182" y="550" as="targetPoint" />
          </mxGeometry>
        </mxCell>
      </root>
    </mxGraphModel>
  </diagram>
</mxfile>
